<mxfile host="Electron" agent="Mozilla/5.0 (Windows NT 10.0; Win64; x64) AppleWebKit/537.36 (KHTML, like Gecko) draw.io/26.2.2 Chrome/134.0.6998.178 Electron/35.1.2 Safari/537.36" version="26.2.2">
  <diagram name="Sayfa -1" id="B4lS4SuTQekZoEldepw1">
    <mxGraphModel dx="1245" dy="524" grid="1" gridSize="10" guides="1" tooltips="1" connect="1" arrows="1" fold="1" page="1" pageScale="1" pageWidth="827" pageHeight="1169" math="0" shadow="0">
      <root>
        <mxCell id="0" />
        <mxCell id="1" parent="0" />
        <mxCell id="jQu7RCdqtAegMrPOLgxU-1" value="&lt;b&gt;SPOTIFY&lt;/b&gt;&lt;div&gt;&lt;b&gt;SİSTEMİ&lt;/b&gt;&lt;/div&gt;" style="ellipse;whiteSpace=wrap;html=1;aspect=fixed;fillColor=#5AD512;strokeColor=#82b366;" parent="1" vertex="1">
          <mxGeometry x="760" y="560" width="130" height="130" as="geometry" />
        </mxCell>
        <mxCell id="jQu7RCdqtAegMrPOLgxU-2" value="Dinleyici" style="rounded=0;whiteSpace=wrap;html=1;" parent="1" vertex="1">
          <mxGeometry x="765" y="220" width="120" height="60" as="geometry" />
        </mxCell>
        <mxCell id="jQu7RCdqtAegMrPOLgxU-3" value="Sanatçı / İçerik Üreticisi" style="rounded=0;whiteSpace=wrap;html=1;" parent="1" vertex="1">
          <mxGeometry x="400" y="850" width="130" height="60" as="geometry" />
        </mxCell>
        <mxCell id="jQu7RCdqtAegMrPOLgxU-4" value="Reklam Verenler" style="rounded=0;whiteSpace=wrap;html=1;" parent="1" vertex="1">
          <mxGeometry x="300" y="700" width="120" height="60" as="geometry" />
        </mxCell>
        <mxCell id="jQu7RCdqtAegMrPOLgxU-5" value="Ödeme Sağlayıcıları" style="rounded=0;whiteSpace=wrap;html=1;" parent="1" vertex="1">
          <mxGeometry x="460" y="310" width="120" height="60" as="geometry" />
        </mxCell>
        <mxCell id="jQu7RCdqtAegMrPOLgxU-6" value="Regülasyon Kurumları" style="rounded=0;whiteSpace=wrap;html=1;" parent="1" vertex="1">
          <mxGeometry x="1150" y="870" width="120" height="60" as="geometry" />
        </mxCell>
        <mxCell id="jQu7RCdqtAegMrPOLgxU-7" value="Üçüncü Taraf Geliştiriciler" style="rounded=0;whiteSpace=wrap;html=1;" parent="1" vertex="1">
          <mxGeometry x="1260" y="660" width="120" height="50" as="geometry" />
        </mxCell>
        <mxCell id="jQu7RCdqtAegMrPOLgxU-8" value="Telif Hakları Kurumu" style="rounded=0;whiteSpace=wrap;html=1;" parent="1" vertex="1">
          <mxGeometry x="1260" y="490" width="120" height="60" as="geometry" />
        </mxCell>
        <mxCell id="jQu7RCdqtAegMrPOLgxU-9" value="Destek Ekibi" style="rounded=0;whiteSpace=wrap;html=1;" parent="1" vertex="1">
          <mxGeometry x="1100" y="310" width="120" height="60" as="geometry" />
        </mxCell>
        <mxCell id="jQu7RCdqtAegMrPOLgxU-10" value="Veri Analitiği Şirketleri" style="rounded=0;whiteSpace=wrap;html=1;" parent="1" vertex="1">
          <mxGeometry x="300" y="490" width="120" height="60" as="geometry" />
        </mxCell>
        <mxCell id="jQu7RCdqtAegMrPOLgxU-11" value="" style="curved=1;endArrow=classic;html=1;rounded=0;exitX=0.425;exitY=1.05;exitDx=0;exitDy=0;entryX=0.431;entryY=0.015;entryDx=0;entryDy=0;exitPerimeter=0;entryPerimeter=0;" parent="1" source="jQu7RCdqtAegMrPOLgxU-2" target="jQu7RCdqtAegMrPOLgxU-1" edge="1">
          <mxGeometry width="50" height="50" relative="1" as="geometry">
            <mxPoint x="816.3400000000001" y="369.99999999999994" as="sourcePoint" />
            <mxPoint x="857.5" y="562.46" as="targetPoint" />
            <Array as="points">
              <mxPoint x="770" y="430" />
            </Array>
          </mxGeometry>
        </mxCell>
        <mxCell id="jQu7RCdqtAegMrPOLgxU-12" value="Kullanıcı bilgileri&lt;div&gt;Müzik dinleme&lt;/div&gt;&lt;div&gt;Abonelik bilgileri&lt;/div&gt;" style="edgeLabel;html=1;align=center;verticalAlign=middle;resizable=0;points=[];" parent="jQu7RCdqtAegMrPOLgxU-11" vertex="1" connectable="0">
          <mxGeometry x="-0.0531" y="3" relative="1" as="geometry">
            <mxPoint x="11" y="-23" as="offset" />
          </mxGeometry>
        </mxCell>
        <mxCell id="jQu7RCdqtAegMrPOLgxU-13" value="" style="curved=1;endArrow=classic;html=1;rounded=0;exitX=0.5;exitY=0;exitDx=0;exitDy=0;entryX=0.6;entryY=1.05;entryDx=0;entryDy=0;entryPerimeter=0;" parent="1" source="jQu7RCdqtAegMrPOLgxU-1" target="jQu7RCdqtAegMrPOLgxU-2" edge="1">
          <mxGeometry width="50" height="50" relative="1" as="geometry">
            <mxPoint x="875" y="562" as="sourcePoint" />
            <mxPoint x="834" y="370" as="targetPoint" />
            <Array as="points">
              <mxPoint x="880" y="480" />
            </Array>
          </mxGeometry>
        </mxCell>
        <mxCell id="jQu7RCdqtAegMrPOLgxU-14" value="Kişiselleşitrilmiş Müzik Akışı" style="edgeLabel;html=1;align=center;verticalAlign=middle;resizable=0;points=[];" parent="jQu7RCdqtAegMrPOLgxU-13" vertex="1" connectable="0">
          <mxGeometry x="-0.0531" y="3" relative="1" as="geometry">
            <mxPoint x="8" y="-5" as="offset" />
          </mxGeometry>
        </mxCell>
        <mxCell id="jQu7RCdqtAegMrPOLgxU-19" value="" style="curved=1;endArrow=classic;html=1;rounded=0;exitX=1;exitY=0.5;exitDx=0;exitDy=0;entryX=0;entryY=0.5;entryDx=0;entryDy=0;" parent="1" source="jQu7RCdqtAegMrPOLgxU-4" target="jQu7RCdqtAegMrPOLgxU-1" edge="1">
          <mxGeometry width="50" height="50" relative="1" as="geometry">
            <mxPoint x="500" y="680" as="sourcePoint" />
            <mxPoint x="550" y="630" as="targetPoint" />
            <Array as="points">
              <mxPoint x="540" y="640" />
            </Array>
          </mxGeometry>
        </mxCell>
        <mxCell id="jQu7RCdqtAegMrPOLgxU-20" value="Reklam İçerikleri" style="edgeLabel;html=1;align=center;verticalAlign=middle;resizable=0;points=[];" parent="jQu7RCdqtAegMrPOLgxU-19" vertex="1" connectable="0">
          <mxGeometry x="-0.1508" y="-5" relative="1" as="geometry">
            <mxPoint x="22" y="6" as="offset" />
          </mxGeometry>
        </mxCell>
        <mxCell id="jQu7RCdqtAegMrPOLgxU-21" value="" style="curved=1;endArrow=classic;html=1;rounded=0;exitX=1;exitY=0.5;exitDx=0;exitDy=0;entryX=1.017;entryY=0.633;entryDx=0;entryDy=0;entryPerimeter=0;" parent="1" target="jQu7RCdqtAegMrPOLgxU-4" edge="1">
          <mxGeometry width="50" height="50" relative="1" as="geometry">
            <mxPoint x="760" y="635" as="sourcePoint" />
            <mxPoint x="450" y="690" as="targetPoint" />
            <Array as="points">
              <mxPoint x="600" y="720" />
            </Array>
          </mxGeometry>
        </mxCell>
        <mxCell id="jQu7RCdqtAegMrPOLgxU-22" value="Reklam Performans Analizi" style="edgeLabel;html=1;align=center;verticalAlign=middle;resizable=0;points=[];" parent="jQu7RCdqtAegMrPOLgxU-21" vertex="1" connectable="0">
          <mxGeometry x="-0.1508" y="-5" relative="1" as="geometry">
            <mxPoint x="-29" y="1" as="offset" />
          </mxGeometry>
        </mxCell>
        <mxCell id="jQu7RCdqtAegMrPOLgxU-23" value="" style="curved=1;endArrow=classic;html=1;rounded=0;exitX=0.883;exitY=1.017;exitDx=0;exitDy=0;exitPerimeter=0;entryX=0.269;entryY=0.062;entryDx=0;entryDy=0;entryPerimeter=0;" parent="1" source="jQu7RCdqtAegMrPOLgxU-5" target="jQu7RCdqtAegMrPOLgxU-1" edge="1">
          <mxGeometry width="50" height="50" relative="1" as="geometry">
            <mxPoint x="730" y="550" as="sourcePoint" />
            <mxPoint x="795" y="566" as="targetPoint" />
            <Array as="points">
              <mxPoint x="670" y="400" />
            </Array>
          </mxGeometry>
        </mxCell>
        <mxCell id="jQu7RCdqtAegMrPOLgxU-24" value="Ödeme Onayları" style="edgeLabel;html=1;align=center;verticalAlign=middle;resizable=0;points=[];" parent="jQu7RCdqtAegMrPOLgxU-23" vertex="1" connectable="0">
          <mxGeometry x="-0.1629" y="-19" relative="1" as="geometry">
            <mxPoint as="offset" />
          </mxGeometry>
        </mxCell>
        <mxCell id="jQu7RCdqtAegMrPOLgxU-25" value="" style="curved=1;endArrow=classic;html=1;rounded=0;exitX=0;exitY=0;exitDx=0;exitDy=0;entryX=0.269;entryY=0.046;entryDx=0;entryDy=0;entryPerimeter=0;" parent="1" source="jQu7RCdqtAegMrPOLgxU-1" edge="1">
          <mxGeometry width="50" height="50" relative="1" as="geometry">
            <mxPoint x="779" y="565" as="sourcePoint" />
            <mxPoint x="550" y="370" as="targetPoint" />
            <Array as="points">
              <mxPoint x="579" y="460" />
            </Array>
          </mxGeometry>
        </mxCell>
        <mxCell id="jQu7RCdqtAegMrPOLgxU-26" value="Ödeme Talepleri" style="edgeLabel;html=1;align=center;verticalAlign=middle;resizable=0;points=[];" parent="jQu7RCdqtAegMrPOLgxU-25" vertex="1" connectable="0">
          <mxGeometry x="-0.1629" y="-19" relative="1" as="geometry">
            <mxPoint as="offset" />
          </mxGeometry>
        </mxCell>
        <mxCell id="jQu7RCdqtAegMrPOLgxU-27" value="" style="curved=1;endArrow=classic;html=1;rounded=0;exitX=0.808;exitY=0.085;exitDx=0;exitDy=0;exitPerimeter=0;entryX=-0.017;entryY=0.617;entryDx=0;entryDy=0;entryPerimeter=0;" parent="1" source="jQu7RCdqtAegMrPOLgxU-1" target="jQu7RCdqtAegMrPOLgxU-9" edge="1">
          <mxGeometry width="50" height="50" relative="1" as="geometry">
            <mxPoint x="970" y="530" as="sourcePoint" />
            <mxPoint x="1020" y="480" as="targetPoint" />
            <Array as="points">
              <mxPoint x="960" y="420" />
            </Array>
          </mxGeometry>
        </mxCell>
        <mxCell id="jQu7RCdqtAegMrPOLgxU-28" value="Destek Talepleri" style="edgeLabel;html=1;align=center;verticalAlign=middle;resizable=0;points=[];" parent="jQu7RCdqtAegMrPOLgxU-27" vertex="1" connectable="0">
          <mxGeometry x="-0.0565" y="-16" relative="1" as="geometry">
            <mxPoint x="-8" y="13" as="offset" />
          </mxGeometry>
        </mxCell>
        <mxCell id="jQu7RCdqtAegMrPOLgxU-29" value="" style="curved=1;endArrow=classic;html=1;rounded=0;exitX=0.14;exitY=1.027;exitDx=0;exitDy=0;exitPerimeter=0;entryX=1;entryY=0;entryDx=0;entryDy=0;" parent="1" source="jQu7RCdqtAegMrPOLgxU-9" target="jQu7RCdqtAegMrPOLgxU-1" edge="1">
          <mxGeometry width="50" height="50" relative="1" as="geometry">
            <mxPoint x="1118" y="430" as="sourcePoint" />
            <mxPoint x="885" y="594" as="targetPoint" />
            <Array as="points">
              <mxPoint x="1040" y="500" />
            </Array>
          </mxGeometry>
        </mxCell>
        <mxCell id="jQu7RCdqtAegMrPOLgxU-30" value="Destek Yanıtları" style="edgeLabel;html=1;align=center;verticalAlign=middle;resizable=0;points=[];" parent="jQu7RCdqtAegMrPOLgxU-29" vertex="1" connectable="0">
          <mxGeometry x="0.0166" y="-13" relative="1" as="geometry">
            <mxPoint as="offset" />
          </mxGeometry>
        </mxCell>
        <mxCell id="jQu7RCdqtAegMrPOLgxU-31" value="" style="curved=1;endArrow=classic;html=1;rounded=0;exitX=1;exitY=0.5;exitDx=0;exitDy=0;entryX=0;entryY=0.25;entryDx=0;entryDy=0;" parent="1" source="jQu7RCdqtAegMrPOLgxU-1" target="jQu7RCdqtAegMrPOLgxU-8" edge="1">
          <mxGeometry width="50" height="50" relative="1" as="geometry">
            <mxPoint x="960" y="655" as="sourcePoint" />
            <mxPoint x="1010" y="605" as="targetPoint" />
            <Array as="points">
              <mxPoint x="960" y="580" />
              <mxPoint x="1080" y="520" />
            </Array>
          </mxGeometry>
        </mxCell>
        <mxCell id="jQu7RCdqtAegMrPOLgxU-32" value="Telif İhlali Raporları" style="edgeLabel;html=1;align=center;verticalAlign=middle;resizable=0;points=[];" parent="jQu7RCdqtAegMrPOLgxU-31" vertex="1" connectable="0">
          <mxGeometry x="0.0867" y="-12" relative="1" as="geometry">
            <mxPoint as="offset" />
          </mxGeometry>
        </mxCell>
        <mxCell id="jQu7RCdqtAegMrPOLgxU-33" value="" style="curved=1;endArrow=classic;html=1;rounded=0;exitX=0;exitY=0.5;exitDx=0;exitDy=0;entryX=0;entryY=0.25;entryDx=0;entryDy=0;" parent="1" source="jQu7RCdqtAegMrPOLgxU-8" edge="1">
          <mxGeometry width="50" height="50" relative="1" as="geometry">
            <mxPoint x="1150" y="620" as="sourcePoint" />
            <mxPoint x="890" y="635" as="targetPoint" />
            <Array as="points">
              <mxPoint x="1060" y="620" />
            </Array>
          </mxGeometry>
        </mxCell>
        <mxCell id="jQu7RCdqtAegMrPOLgxU-34" value="Telif Kontrol Talepleri" style="edgeLabel;html=1;align=center;verticalAlign=middle;resizable=0;points=[];" parent="jQu7RCdqtAegMrPOLgxU-33" vertex="1" connectable="0">
          <mxGeometry x="0.0867" y="-12" relative="1" as="geometry">
            <mxPoint y="-8" as="offset" />
          </mxGeometry>
        </mxCell>
        <mxCell id="jQu7RCdqtAegMrPOLgxU-35" value="" style="curved=1;endArrow=classic;html=1;rounded=0;exitX=1;exitY=1;exitDx=0;exitDy=0;entryX=0;entryY=0.5;entryDx=0;entryDy=0;" parent="1" source="jQu7RCdqtAegMrPOLgxU-1" target="jQu7RCdqtAegMrPOLgxU-7" edge="1">
          <mxGeometry width="50" height="50" relative="1" as="geometry">
            <mxPoint x="730" y="750" as="sourcePoint" />
            <mxPoint x="1210" y="630" as="targetPoint" />
            <Array as="points">
              <mxPoint x="1060" y="620" />
            </Array>
          </mxGeometry>
        </mxCell>
        <mxCell id="jQu7RCdqtAegMrPOLgxU-36" value="API Erişimi" style="edgeLabel;html=1;align=center;verticalAlign=middle;resizable=0;points=[];" parent="jQu7RCdqtAegMrPOLgxU-35" vertex="1" connectable="0">
          <mxGeometry x="-0.0546" y="-25" relative="1" as="geometry">
            <mxPoint x="1" as="offset" />
          </mxGeometry>
        </mxCell>
        <mxCell id="jQu7RCdqtAegMrPOLgxU-37" value="" style="curved=1;endArrow=classic;html=1;rounded=0;entryX=0.5;entryY=0;entryDx=0;entryDy=0;exitX=0;exitY=0.5;exitDx=0;exitDy=0;" parent="1" source="jQu7RCdqtAegMrPOLgxU-7" edge="1">
          <mxGeometry width="50" height="50" relative="1" as="geometry">
            <mxPoint x="1210" y="680" as="sourcePoint" />
            <mxPoint x="860" y="680" as="targetPoint" />
            <Array as="points">
              <mxPoint x="1140" y="730" />
            </Array>
          </mxGeometry>
        </mxCell>
        <mxCell id="jQu7RCdqtAegMrPOLgxU-38" value="API Entegrasyonu" style="edgeLabel;html=1;align=center;verticalAlign=middle;resizable=0;points=[];" parent="jQu7RCdqtAegMrPOLgxU-37" vertex="1" connectable="0">
          <mxGeometry x="0.1332" y="-17" relative="1" as="geometry">
            <mxPoint as="offset" />
          </mxGeometry>
        </mxCell>
        <mxCell id="jQu7RCdqtAegMrPOLgxU-39" value="" style="curved=1;endArrow=classic;html=1;rounded=0;exitX=0.454;exitY=1.015;exitDx=0;exitDy=0;exitPerimeter=0;entryX=0;entryY=0.25;entryDx=0;entryDy=0;" parent="1" target="jQu7RCdqtAegMrPOLgxU-6" edge="1">
          <mxGeometry width="50" height="50" relative="1" as="geometry">
            <mxPoint x="827.0000000000002" y="690" as="sourcePoint" />
            <mxPoint x="1157.98" y="818.05" as="targetPoint" />
            <Array as="points">
              <mxPoint x="940" y="820" />
            </Array>
          </mxGeometry>
        </mxCell>
        <mxCell id="jQu7RCdqtAegMrPOLgxU-40" value="Raporlamalar" style="edgeLabel;html=1;align=center;verticalAlign=middle;resizable=0;points=[];" parent="jQu7RCdqtAegMrPOLgxU-39" vertex="1" connectable="0">
          <mxGeometry x="0.2366" y="17" relative="1" as="geometry">
            <mxPoint x="1" as="offset" />
          </mxGeometry>
        </mxCell>
        <mxCell id="jQu7RCdqtAegMrPOLgxU-41" value="" style="curved=1;endArrow=classic;html=1;rounded=0;entryX=0.333;entryY=-0.033;entryDx=0;entryDy=0;entryPerimeter=0;exitX=0;exitY=0.25;exitDx=0;exitDy=0;" parent="1" source="jQu7RCdqtAegMrPOLgxU-6" edge="1">
          <mxGeometry width="50" height="50" relative="1" as="geometry">
            <mxPoint x="1140" y="800" as="sourcePoint" />
            <mxPoint x="830" y="690" as="targetPoint" />
            <Array as="points">
              <mxPoint x="1020" y="720" />
            </Array>
          </mxGeometry>
        </mxCell>
        <mxCell id="jQu7RCdqtAegMrPOLgxU-42" value="Uyumluluk Denetimleri" style="edgeLabel;html=1;align=center;verticalAlign=middle;resizable=0;points=[];" parent="jQu7RCdqtAegMrPOLgxU-41" vertex="1" connectable="0">
          <mxGeometry x="-0.0732" y="17" relative="1" as="geometry">
            <mxPoint x="14" y="25" as="offset" />
          </mxGeometry>
        </mxCell>
        <mxCell id="jQu7RCdqtAegMrPOLgxU-43" value="" style="curved=1;endArrow=classic;html=1;rounded=0;exitX=1;exitY=0.5;exitDx=0;exitDy=0;" parent="1" source="jQu7RCdqtAegMrPOLgxU-10" target="jQu7RCdqtAegMrPOLgxU-1" edge="1">
          <mxGeometry width="50" height="50" relative="1" as="geometry">
            <mxPoint x="580" y="470" as="sourcePoint" />
            <mxPoint x="530" y="520" as="targetPoint" />
            <Array as="points">
              <mxPoint x="560" y="500" />
            </Array>
          </mxGeometry>
        </mxCell>
        <mxCell id="jQu7RCdqtAegMrPOLgxU-44" value="Kullanıcı Davranış Analizi" style="edgeLabel;html=1;align=center;verticalAlign=middle;resizable=0;points=[];" parent="jQu7RCdqtAegMrPOLgxU-43" vertex="1" connectable="0">
          <mxGeometry x="0.0135" y="17" relative="1" as="geometry">
            <mxPoint x="-19" y="26" as="offset" />
          </mxGeometry>
        </mxCell>
        <mxCell id="jQu7RCdqtAegMrPOLgxU-45" value="" style="curved=1;endArrow=classic;html=1;rounded=0;exitX=0.008;exitY=0.354;exitDx=0;exitDy=0;entryX=1;entryY=0.75;entryDx=0;entryDy=0;exitPerimeter=0;" parent="1" source="jQu7RCdqtAegMrPOLgxU-1" target="jQu7RCdqtAegMrPOLgxU-10" edge="1">
          <mxGeometry width="50" height="50" relative="1" as="geometry">
            <mxPoint x="760" y="610" as="sourcePoint" />
            <mxPoint x="430" y="520" as="targetPoint" />
            <Array as="points">
              <mxPoint x="540" y="590" />
            </Array>
          </mxGeometry>
        </mxCell>
        <mxCell id="jQu7RCdqtAegMrPOLgxU-46" value="Kullanıcı Dinleme Verileri" style="edgeLabel;html=1;align=center;verticalAlign=middle;resizable=0;points=[];" parent="jQu7RCdqtAegMrPOLgxU-45" vertex="1" connectable="0">
          <mxGeometry x="-0.1124" y="14" relative="1" as="geometry">
            <mxPoint x="-13" y="-24" as="offset" />
          </mxGeometry>
        </mxCell>
        <mxCell id="jQu7RCdqtAegMrPOLgxU-57" value="Müzik Distribütörleri / Plak şirketleri" style="rounded=0;whiteSpace=wrap;html=1;" parent="1" vertex="1">
          <mxGeometry x="750" y="1010" width="120" height="60" as="geometry" />
        </mxCell>
        <mxCell id="jQu7RCdqtAegMrPOLgxU-60" value="" style="curved=1;endArrow=classic;html=1;rounded=0;exitX=0.5;exitY=0;exitDx=0;exitDy=0;" parent="1" source="jQu7RCdqtAegMrPOLgxU-57" edge="1">
          <mxGeometry width="50" height="50" relative="1" as="geometry">
            <mxPoint x="810" y="917" as="sourcePoint" />
            <mxPoint x="810" y="690" as="targetPoint" />
            <Array as="points">
              <mxPoint x="865" y="837" />
            </Array>
          </mxGeometry>
        </mxCell>
        <mxCell id="jQu7RCdqtAegMrPOLgxU-61" value="Müzik / podcast&lt;div&gt;Meta veriler&lt;/div&gt;" style="edgeLabel;html=1;align=center;verticalAlign=middle;resizable=0;points=[];" parent="jQu7RCdqtAegMrPOLgxU-60" vertex="1" connectable="0">
          <mxGeometry x="-0.0531" y="3" relative="1" as="geometry">
            <mxPoint x="-16" y="-37" as="offset" />
          </mxGeometry>
        </mxCell>
        <mxCell id="jQu7RCdqtAegMrPOLgxU-62" value="" style="curved=1;endArrow=classic;html=1;rounded=0;entryX=0.39;entryY=-0.007;entryDx=0;entryDy=0;entryPerimeter=0;" parent="1" target="jQu7RCdqtAegMrPOLgxU-57" edge="1">
          <mxGeometry width="50" height="50" relative="1" as="geometry">
            <mxPoint x="800" y="690" as="sourcePoint" />
            <mxPoint x="786" y="909" as="targetPoint" />
            <Array as="points">
              <mxPoint x="750" y="820" />
            </Array>
          </mxGeometry>
        </mxCell>
        <mxCell id="jQu7RCdqtAegMrPOLgxU-63" value="Gelir Paylaşım Ödemleri&lt;div&gt;İçerik Performans Raporları&lt;/div&gt;" style="edgeLabel;html=1;align=center;verticalAlign=middle;resizable=0;points=[];" parent="jQu7RCdqtAegMrPOLgxU-62" vertex="1" connectable="0">
          <mxGeometry x="-0.0531" y="3" relative="1" as="geometry">
            <mxPoint x="-1" y="45" as="offset" />
          </mxGeometry>
        </mxCell>
        <mxCell id="jQu7RCdqtAegMrPOLgxU-68" value="" style="curved=1;endArrow=classic;html=1;rounded=0;exitX=0.5;exitY=1;exitDx=0;exitDy=0;entryX=0;entryY=0.75;entryDx=0;entryDy=0;" parent="1" source="jQu7RCdqtAegMrPOLgxU-3" target="jQu7RCdqtAegMrPOLgxU-57" edge="1">
          <mxGeometry width="50" height="50" relative="1" as="geometry">
            <mxPoint x="590" y="1059" as="sourcePoint" />
            <mxPoint x="361" y="850" as="targetPoint" />
            <Array as="points">
              <mxPoint x="490" y="1030" />
            </Array>
          </mxGeometry>
        </mxCell>
        <mxCell id="-1R7ivYq-T5Al2d7mDU2-5" value="Müzik / podcast&lt;div&gt;Meta veriler&lt;/div&gt;" style="edgeLabel;html=1;align=center;verticalAlign=middle;resizable=0;points=[];" vertex="1" connectable="0" parent="jQu7RCdqtAegMrPOLgxU-68">
          <mxGeometry x="0.0615" y="20" relative="1" as="geometry">
            <mxPoint as="offset" />
          </mxGeometry>
        </mxCell>
        <mxCell id="jQu7RCdqtAegMrPOLgxU-80" value="" style="curved=1;endArrow=classic;html=1;rounded=0;entryX=0.75;entryY=1;entryDx=0;entryDy=0;exitX=0;exitY=0.25;exitDx=0;exitDy=0;" parent="1" source="jQu7RCdqtAegMrPOLgxU-57" target="jQu7RCdqtAegMrPOLgxU-3" edge="1">
          <mxGeometry width="50" height="50" relative="1" as="geometry">
            <mxPoint x="930" y="795" as="sourcePoint" />
            <mxPoint x="560" y="890" as="targetPoint" />
            <Array as="points">
              <mxPoint x="680" y="930" />
            </Array>
          </mxGeometry>
        </mxCell>
        <mxCell id="jQu7RCdqtAegMrPOLgxU-83" value="Dinleme Verileri&lt;div&gt;Telif Ödemeleri&lt;/div&gt;" style="edgeLabel;html=1;align=center;verticalAlign=middle;resizable=0;points=[];" parent="jQu7RCdqtAegMrPOLgxU-80" vertex="1" connectable="0">
          <mxGeometry x="-0.0024" y="17" relative="1" as="geometry">
            <mxPoint as="offset" />
          </mxGeometry>
        </mxCell>
      </root>
    </mxGraphModel>
  </diagram>
</mxfile>
